<svg preserveAspectRatio="none" overflow="visible" style="display: block;" width="44.9273" height="60" viewBox="0 0 44.9273 60" fill="none" xmlns="http://www.w3.org/2000/svg">
<g id="Group">
<path id="Vector" d="M20.7203 59.998C20.8937 59.6571 20.798 59.2902 20.824 58.9313C20.824 59.1028 20.7861 59.2284 20.7143 59.3101C20.6664 59.5135 20.6884 59.7488 20.7183 60L20.7203 59.998Z" fill="white"/>
<path id="Vector_2" d="M41.2507 29.5743C41.5896 27.6064 41.6634 25.6266 41.3902 23.6168C41.7152 23.4613 41.8827 23.1861 41.8548 22.8452C41.8269 22.5182 41.5637 22.2311 41.1869 22.1673L40.9496 21.1445C41.4341 20.8853 41.6674 20.3948 41.5278 19.8824C41.3982 19.4058 40.9277 19.033 40.3554 19.0948C37.9987 12.5172 32.5217 7.56455 25.7228 5.8718L23.8067 5.43316C22.7919 5.21782 21.9126 5.00249 21.5517 4.01356C21.2766 3.26189 21.1171 2.49427 21.0114 1.69275L20.7901 0L20.511 2.06759C20.4172 2.75745 20.2478 3.41342 20.0145 4.05742C19.6217 5.14605 18.4035 5.33347 17.2132 5.57073C14.5793 6.0971 12.0731 7.03818 9.79218 8.47772C5.84642 10.964 2.87164 14.7124 1.29453 19.0908C0.708344 19.019 0.219858 19.354 0.0583586 19.8285C-0.125073 20.3689 0.134124 20.9431 0.692393 21.1803C-1.60648 30.5074 2.82777 39.9621 11.2696 44.4263L13.5605 45.5847C13.0242 49.3809 15.644 52.9259 19.3206 53.6357C19.7992 53.7274 20.17 54.0485 20.2378 54.5349L20.4771 56.2915L20.7123 59.3101L20.822 58.9313L21.0294 56.0821L21.2646 54.519C21.3324 54.0624 21.6933 53.7414 22.1559 53.6557C23.4897 53.4084 24.6601 52.7943 25.6829 51.8891C27.4694 50.31 28.3028 47.9274 27.9858 45.5468L28.875 45.1301C35.1915 42.4763 39.7972 36.8298 41.151 30.1545L44.9273 29.8774L41.2467 29.5723L41.2507 29.5743ZM21.8767 6.67331C22.3612 6.24065 22.9534 6.01137 23.6074 5.94756C30.2428 7.37314 35.008 13.1572 34.9482 20.0379C32.9444 17.1728 30.1949 15.0194 26.9709 13.7374C25.4955 13.1512 24.0201 12.8382 22.4569 12.6408C21.472 12.5152 21.2247 10.5274 21.0254 9.49058C21.137 8.70302 21.4859 7.02423 21.8767 6.67531V6.67331ZM14.3919 31.4106L11.774 33.3865L13.708 30.7586L6.35883 29.8714L13.736 28.9782L11.9674 26.6195C11.9096 26.5437 11.8099 26.4999 11.79 26.3563C11.9216 26.3942 11.9754 26.4819 12.0631 26.5477L14.3959 28.3063L15.2214 20.3828C15.2373 20.2313 15.1914 20.0738 15.323 19.9322L15.339 20.319L16.1784 28.3122L18.5849 26.4739C18.6667 26.4121 18.7145 26.3304 18.8262 26.2965C18.8122 26.44 18.7006 26.4779 18.6368 26.5656L16.8583 28.9682L23.1069 29.7139C23.1587 29.8016 23.1587 29.9492 23.1069 30.0269L16.8563 30.7507L18.7365 33.2749C18.7823 33.3347 18.9179 33.3745 18.8581 33.4782C18.7145 33.4304 18.6906 33.3227 18.6208 33.2689L16.1864 31.4186L15.323 39.4537C15.2812 39.5215 15.2493 39.4836 15.2273 39.342L14.3919 31.4106ZM14.8904 39.8664C13.411 39.7807 11.9914 39.4357 10.6774 38.7459C7.47537 37.0611 5.39382 33.7912 5.29213 30.1525L6.98887 30.3519C7.2062 34.4991 10.484 37.8965 14.705 38.1836L14.8904 39.8664ZM5.3021 29.5903C5.43968 24.3804 9.60078 20.0897 14.8764 19.8923L14.7149 21.5492C10.5239 21.8383 7.20819 25.2138 6.99087 29.3989L5.30011 29.5903H5.3021ZM15.6002 40.634L16.6031 40.5662L15.5264 41.4595L15.6022 40.634H15.6002ZM15.6979 39.8644L15.8474 38.1777C18.2998 38.0341 20.501 36.8039 21.9465 34.836C22.754 33.7653 23.2624 32.581 23.4817 31.2292C23.8446 31.8154 24.2853 32.2082 24.9173 32.4733C23.7629 36.6245 20.1281 39.6471 15.6959 39.8644H15.6979ZM23.5077 29.8754C23.5077 28.5395 24.5903 27.4569 25.9262 27.4569C27.262 27.4569 28.3447 28.5395 28.3447 29.8754C28.3447 31.2112 27.262 32.2939 25.9262 32.2939C24.5903 32.2939 23.5077 31.2112 23.5077 29.8754ZM28.3526 31.2531L36.0966 34.0405C35.8394 35.0434 35.4626 35.9924 34.9921 36.9554L27.5093 32.1683C27.8801 31.8991 28.1154 31.608 28.3526 31.2531ZM28.4922 30.9999C28.5959 30.6769 28.6976 30.3778 28.7095 29.9791L32.8886 30.1844C33.9174 30.2343 34.8984 30.338 35.9052 30.5174C36.1505 30.5752 36.3718 30.631 36.6031 30.8244C36.5871 31.7157 36.4655 32.5511 36.2601 33.4224L28.4902 31.0019L28.4922 30.9999ZM36.0069 29.2174L33.9393 29.4926L28.7235 29.7259C28.6697 29.3889 28.6258 29.0998 28.4822 28.7788L33.0042 27.3373L36.2402 26.3264C36.4575 27.1758 36.5652 28.0311 36.613 28.9124C36.4416 29.0978 36.2282 29.1596 36.0069 29.2214V29.2174ZM31.5806 27.3373L28.3546 28.5156C28.1254 28.1448 27.8821 27.8556 27.5172 27.5925L31.8857 24.843L35.03 22.891C35.4686 23.8102 35.8155 24.7034 36.0907 25.6804L31.5826 27.3353L31.5806 27.3373ZM21.2606 16.8976C21.3324 16.1719 21.456 15.492 21.6574 14.8041C21.775 14.4592 21.9724 14.1621 22.3313 14.0325C24.5086 14.2339 26.5642 14.9098 28.4703 15.9725C31.128 17.4559 33.2694 19.6172 34.7428 22.3348L27.258 27.429C26.7616 27.1797 26.293 27.0641 25.6769 27.1159C24.9273 24.4183 23.2664 22.1513 20.8838 20.6899L21.2606 16.8976ZM24.9153 27.2894C24.3112 27.5227 23.8606 27.9434 23.4937 28.5156C22.8477 24.6755 19.6835 21.8323 15.8654 21.5552L15.6959 19.9083C20.0584 20.0578 23.7848 23.0685 24.9153 27.2894ZM15.6082 19.1227L15.345 16.5826L15.2114 16.6683L14.9602 19.1147C12.1608 19.2463 9.83007 20.2133 7.8183 22.1334C6.91909 22.9907 6.22923 23.9657 5.68492 25.0484L5.45961 25.497C5.40179 25.2657 5.55332 25.1361 5.61314 24.9526C6.46251 22.3547 7.93993 20.0778 9.93375 18.2115C12.4161 15.8887 15.8514 14.2837 19.2529 14.0325C19.5998 14.0784 19.8111 14.517 19.9208 14.7941C20.1421 15.5598 20.2378 16.2835 20.3415 17.0711L20.6585 20.5503C19.0774 19.6192 17.3926 19.1985 15.6082 19.1207V19.1227ZM18.0486 5.95554C18.6607 5.85585 19.3625 6.42209 19.7852 6.74509C20.2238 7.65627 20.3734 8.48968 20.5548 9.45669C20.4292 10.2024 20.3096 10.956 20.0285 11.7057C19.853 12.2281 19.4901 12.6089 18.9478 12.6647C13.9892 13.1772 9.51305 15.8289 6.60407 19.9242C6.59011 13.1293 11.4291 7.24753 18.0466 5.95354L18.0486 5.95554ZM8.46031 42.1753C5.10272 39.6072 2.61842 36.0622 1.35833 32.0008C0.744233 30.0249 0.457122 27.9972 0.459116 25.9256C0.459116 24.3326 0.704356 22.8252 1.0453 21.2681C1.58164 21.2501 2.00233 20.9511 2.13392 20.4666C2.26153 19.998 2.07212 19.5055 1.65341 19.2324C3.71303 13.5321 8.0775 9.06191 13.716 6.96042L14.3521 6.72316C14.5295 6.65736 14.691 6.52976 14.9163 6.57163L14.3859 6.8069L13.8337 7.07606C8.97472 9.8076 6.02586 14.8659 6.24518 20.4865C4.41685 23.2758 3.4658 26.4899 3.42193 29.7996L2.8178 29.8794L3.42592 29.9551C3.46779 34.529 5.32603 38.8954 8.56997 42.1174C8.70356 42.249 8.82718 42.3208 8.92886 42.4943C8.7235 42.4265 8.6258 42.3029 8.46231 42.1773L8.46031 42.1753ZM5.66099 34.9536C5.59519 34.7602 5.4975 34.6127 5.50946 34.3854L5.74672 34.852C7.51126 38.3232 11.0463 40.5104 14.9681 40.63L15.0938 41.9918C14.5435 42.6498 14.1487 43.3875 13.8576 44.205C9.97163 42.3128 7.04271 38.9991 5.66099 34.9556V34.9536ZM20.0883 52.9917C17.6678 52.7565 15.6241 51.1554 14.7448 49.038C13.7619 46.6693 14.2504 44.0076 15.9331 42.1753C16.4097 41.6569 16.8782 41.2461 17.4644 40.9172C17.5641 40.8613 17.6159 40.7397 17.7734 40.7477C17.7176 40.8833 17.6 40.9211 17.5162 41.0109C15.7657 42.8651 15.9132 45.796 17.8333 47.4788C18.6228 48.1707 19.5659 48.5774 20.6326 48.6432L20.0863 52.9937L20.0883 52.9917ZM18.9957 45.3773C18.5052 46.1589 18.6029 47.0801 19.1611 47.8776C18.0247 47.3891 17.2052 46.4301 16.8523 45.2816C16.2402 43.2838 17.2112 41.1863 19.1233 40.3449C20.3794 39.7926 21.8388 39.8844 23.0252 40.5981C24.3969 41.4236 25.1267 42.9429 24.9691 44.5339C24.8216 46.0074 23.8406 47.3971 22.3433 47.9454C22.8278 47.2515 23.0252 46.5617 22.748 45.7901C22.5287 45.176 22.0043 44.6237 21.2467 44.4582C20.3295 44.2588 19.4483 44.6516 18.9937 45.3753L18.9957 45.3773ZM25.2423 51.2731C24.1716 52.248 22.8557 52.8841 21.4142 52.9778L20.8718 48.6372C22.2197 48.6133 23.392 48.0451 24.2693 47.0521C25.7607 45.3614 25.7348 42.7933 24.2334 41.1126C24.1577 41.0268 24.036 41.0069 24.0001 40.8673C24.1517 40.8733 24.2215 40.9929 24.3291 41.0627C25.649 41.922 26.5901 43.1702 27.0407 44.6815C27.7485 47.0621 27.0666 49.5923 25.2443 51.275L25.2423 51.2731ZM27.6708 44.1751C27.1623 42.7236 26.2631 41.4954 24.9931 40.5942C23.6692 39.6391 22.1838 39.2065 20.5488 39.2483C23.0491 37.8068 24.8954 35.482 25.651 32.6627C26.2153 32.6907 26.7257 32.597 27.2421 32.3298L34.7149 37.4619C33.1079 40.4107 30.6495 42.6976 27.6688 44.1731L27.6708 44.1751ZM32.0931 42.9469C32.9305 42.0915 33.7619 41.3319 34.4557 40.3609C36.4555 37.7689 37.6797 34.6885 37.9629 31.4246C38.0027 30.972 38.2819 30.6689 38.7125 30.5413C39.3705 30.3479 40.0544 30.2622 40.7582 30.2183C39.6476 35.4202 36.5453 40.0359 32.095 42.9469H32.0931ZM40.8599 29.5444C40.0663 29.4746 39.3625 29.4009 38.6627 29.2015C38.2619 29.0858 38.0207 28.8067 37.9728 28.384C37.7096 25.5967 36.8184 22.9469 35.3031 20.5722C35.5942 14.7303 32.3523 9.34304 27.1723 6.78297L26.8573 6.64939C27.0148 6.53574 27.1145 6.6773 27.264 6.72715C33.2415 8.73692 37.8073 13.2788 39.9985 19.1965C39.522 19.4597 39.2947 19.9781 39.4403 20.4745C39.5878 20.975 40.0404 21.292 40.5907 21.2621L40.7921 22.267C40.493 22.4484 40.3614 22.7515 40.4153 23.0486C40.4691 23.3416 40.6685 23.557 41.0114 23.6367C41.2746 25.6166 41.2228 27.6004 40.8579 29.5464L40.8599 29.5444Z" fill="white"/>
<path id="Vector_3" d="M13.8336 7.07607C13.9333 6.94447 13.8595 6.9365 13.716 6.96043C13.7578 6.98435 13.8077 7.0023 13.8336 7.07607Z" fill="white"/>
<path id="Vector_4" d="M5.74871 34.852C5.63705 34.7523 5.64304 34.8221 5.66297 34.9537C5.68092 34.9078 5.70285 34.854 5.74871 34.852Z" fill="white"/>
<path id="Vector_5" d="M8.56796 42.1155C8.53207 42.1394 8.51213 42.1633 8.46029 42.1753C8.59188 42.253 8.64572 42.255 8.56796 42.1155Z" fill="white"/>
<path id="Vector_6" d="M15.2093 16.6683C15.2572 16.5667 15.303 16.5368 15.3429 16.5826L15.321 16.136C15.1874 16.2935 15.2273 16.473 15.2073 16.6683H15.2093Z" fill="white"/>
<path id="Vector_7" d="M14.3521 6.72316C14.366 6.75905 14.386 6.77899 14.386 6.8069C14.4837 6.72316 14.4657 6.67531 14.3521 6.72316Z" fill="white"/>
<path id="Vector_8" d="M5.68492 25.0484L5.61314 24.9527C5.58722 25.0982 5.61115 25.1301 5.68492 25.0484Z" fill="white"/>
<path id="Vector_9" d="M15.2214 20.3848L15.339 20.321C15.2931 20.2293 15.2533 20.2492 15.2214 20.3848Z" fill="white"/>
<path id="Vector_10" d="M27.1723 6.78298L27.264 6.72715C27.1603 6.70123 27.1304 6.71918 27.1723 6.78298Z" fill="white"/>
<path id="Vector_11" d="M11.9675 26.6195L12.0632 26.5497C11.9276 26.456 11.8757 26.4779 11.9675 26.6195Z" fill="white"/>
<path id="Vector_12" d="M18.585 26.4759L18.6368 26.5676C18.7225 26.446 18.7166 26.3962 18.585 26.4759Z" fill="white"/>
<path id="Vector_13" d="M18.7364 33.2749L18.6208 33.2689C18.7165 33.3407 18.7544 33.3426 18.7364 33.2749Z" fill="white"/>
<path id="Vector_14" d="M25.9401 30.9541C26.5226 30.9541 26.9948 30.4818 26.9948 29.8993C26.9948 29.3168 26.5226 28.8446 25.9401 28.8446C25.3576 28.8446 24.8854 29.3168 24.8854 29.8993C24.8854 30.4818 25.3576 30.9541 25.9401 30.9541Z" fill="white"/>
<path id="Vector_15" d="M17.4664 40.9152C17.4783 40.9491 17.5003 40.971 17.5162 41.0089C17.6099 40.9272 17.584 40.8773 17.4664 40.9152Z" fill="white"/>
<path id="Vector_16" d="M24.2334 41.1106C24.2673 41.0946 24.2893 41.0747 24.3291 41.0607C24.2255 41.0109 24.1936 40.9989 24.2334 41.1106Z" fill="white"/>
</g>
</svg>
